<svg width="36" height="36" viewBox="0 0 36 36" fill="none" xmlns="http://www.w3.org/2000/svg">
<path d="M7.25 15.59C10.141 21.2627 14.7551 25.8734 20.43 28.76L24.83 24.35C25.38 23.8 26.17 23.64 26.86 23.86C29.1 24.6 31.51 25 34 25C35.11 25 36 25.89 36 27V34C36 35.11 35.11 36 34 36C15.22 36 0 20.78 0 2C0 1.46957 0.210714 0.960859 0.585786 0.585786C0.960859 0.210714 1.46957 0 2 0H9C10.11 0 11 0.89 11 2C11 4.49 11.4 6.9 12.14 9.14C12.36 9.83 12.2 10.62 11.65 11.17L7.25 15.59Z" fill="#FFC700"/>
</svg>
